# xmcd CD database file
#
# Track frame offsets:
#	150
#	20860
#	37471
#	58181
#	81924
#	108114
#	128295
#	146564
#	164012
#	188801
#	209072
#
# Disc length: 3050 seconds
#
# Revision: 0
# Processed by: cddbd v1.5.2PL0 Copyright (c) Steve Scherf et al.
# Submitted via: CDex 1.70beta2
#
DISCID=a60be80b
DTITLE=U2 - Acthung Baby
DYEAR=1900
DGENRE=Salsa
TTITLE0=zoo station
TTITLE1=even better than the real thi
TTITLE2=one
TTITLE3=who's gonna ride your wild ho
TTITLE4=so cruel
TTITLE5=the fly
TTITLE6=mysterious ways
TTITLE7=tryin' to throw your arms aro
TTITLE8=ultra violet - light my way-
TTITLE9=acrobat
TTITLE10=love is blindness
EXTD=
EXTT0=
EXTT1=
EXTT2=
EXTT3=
EXTT4=
EXTT5=
EXTT6=
EXTT7=
EXTT8=
EXTT9=
EXTT10=
PLAYORDER=
